<svg width="1066" height="766" viewBox="0 0 1066 766" fill="none" xmlns="http://www.w3.org/2000/svg">
<g opacity="0.12">
<path d="M782.107 0.442139H0.333126V501.308H782.107V0.442139Z" fill="#E6E6E6"/>
<path d="M759.752 63.2637H22.6884V471.677H759.752V63.2637Z" fill="white"/>
<path d="M781.774 0H0V33.2245H781.774V0Z" fill="#EEDD82"/>
<path d="M24.6818 23.1456C28.0818 23.1456 30.8381 20.3883 30.8381 16.9871C30.8381 13.5859 28.0818 10.8286 24.6818 10.8286C21.2819 10.8286 18.5256 13.5859 18.5256 16.9871C18.5256 20.3883 21.2819 23.1456 24.6818 23.1456Z" fill="white"/>
<path d="M48.0468 23.1456C51.4468 23.1456 54.2031 20.3883 54.2031 16.9871C54.2031 13.5859 51.4468 10.8286 48.0468 10.8286C44.6469 10.8286 41.8906 13.5859 41.8906 16.9871C41.8906 20.3883 44.6469 23.1456 48.0468 23.1456Z" fill="white"/>
<path d="M71.4118 23.1456C74.8118 23.1456 77.568 20.3883 77.568 16.9871C77.568 13.5859 74.8118 10.8286 71.4118 10.8286C68.0118 10.8286 65.2556 13.5859 65.2556 16.9871C65.2556 20.3883 68.0118 23.1456 71.4118 23.1456Z" fill="white"/>
<path d="M257.534 96.8567H113.375V253.314H257.534V96.8567Z" fill="#E6E6E6"/>
<path d="M463.298 96.8567H319.14V253.314H463.298V96.8567Z" fill="#E6E6E6"/>
<path d="M669.062 96.8567H524.903V253.314H669.062V96.8567Z" fill="#E6E6E6"/>
<path d="M257.534 281.633H113.375V438.09H257.534V281.633Z" fill="#E6E6E6"/>
<path d="M463.298 281.633H319.14V438.09H463.298V281.633Z" fill="#E6E6E6"/>
<path d="M669.062 281.633H524.903V438.09H669.062V281.633Z" fill="#E6E6E6"/>
<path d="M353.983 321.843L380.322 311.426L383.385 363.511C383.385 363.511 388.898 379.443 387.061 385.571C387.061 385.571 388.285 395.989 385.222 396.601C382.159 397.214 373.582 398.44 372.975 397.826C372.369 397.213 372.363 395.375 372.363 395.375C372.363 395.375 366.237 399.664 365.625 404.566C365.625 404.566 339.898 412.532 339.285 405.178C338.673 397.825 352.148 391.697 352.148 391.697L362.562 375.765L353.983 321.843Z" fill="white"/>
<path d="M409.727 321.843L436.063 311.426L439.126 363.511C439.126 363.511 444.638 379.443 442.801 385.571C442.801 385.571 444.026 395.989 440.963 396.601C437.9 397.214 429.322 398.44 428.716 397.826C428.11 397.213 428.104 395.375 428.104 395.375C428.104 395.375 421.978 399.664 421.365 404.566C421.365 404.566 395.638 412.532 395.026 405.178C394.414 397.825 407.889 391.697 407.889 391.697L418.302 375.765L409.727 321.843Z" fill="white"/>
<path d="M412.3 120.707C412.3 120.707 406.692 136.384 413.19 143.453L407.773 162.077C407.773 162.077 427.021 219.843 421.522 227.912C421.522 227.912 400.991 238.181 359.923 224.244L376.605 159.509L374.222 132.185L377.521 119.347L384.854 118.619C384.854 118.619 380.455 135.124 388.521 137.692C396.587 140.26 404.455 119.032 404.455 119.032L412.3 120.707Z" fill="#3F3D56"/>
<path d="M153.294 221.905L160.372 224.802L194.152 180.39L204.768 232.525L211.846 231.238C216.385 186.29 220.091 140.444 215.545 118.76L189.326 117.633L177.423 155.614L171.632 181.36L153.294 221.905Z" fill="white"/>
<path d="M582.855 118.405C582.855 118.405 573.196 131.838 573.668 137.259C574.139 142.68 580.264 231.057 580.264 231.057L594.635 231.765L590.391 168.132L593.925 150.928L602.642 231.057L620.312 231.529L604.528 127.597L601.465 118.406L582.855 118.405Z" fill="white"/>
<path d="M637.448 334.814C634.883 331.735 630.474 330.071 626.241 329.171C626.362 328.786 613.366 326.1 613.145 326.653L608.245 322.748L593.189 330.568L584.729 324.807L580.799 326.202C580.959 325.508 568.599 327.65 568.599 327.65C566.238 327.735 563.223 327.883 559.847 328.142C548.026 329.052 547.115 359.681 547.115 359.681C552.554 357.455 558.353 356.24 564.228 356.096L567.423 392.729C583.857 391.32 601.092 392.96 618.957 396.975L627.335 368.178L646.844 360.588C646.844 360.588 643.511 342.091 637.448 334.814Z" fill="#3F3D56"/>
<path d="M218.797 317.369C216.684 314.833 213.052 313.461 209.564 312.72C209.668 312.402 198.955 310.19 198.772 310.646L194.734 307.429L182.33 313.872L175.359 309.126L172.122 310.276C172.254 309.704 162.07 311.468 162.07 311.468C160.129 311.538 157.639 311.66 154.858 311.874C145.118 312.624 144.368 337.858 144.368 337.858C148.85 336.024 153.629 335.023 158.469 334.905L161.102 408.794C174.643 407.632 188.844 408.985 203.56 412.293L210.462 344.861L226.537 338.608C226.537 338.608 223.792 323.368 218.797 317.369Z" fill="white"/>
<path d="M908.76 337.037H977.877V300.04C977.877 290.872 974.236 282.078 967.755 275.595C961.274 269.112 952.484 265.469 943.318 265.469C934.153 265.469 925.363 269.112 918.882 275.595C912.401 282.078 908.76 290.872 908.76 300.04V337.037Z" fill="#2F2E41"/>
<path d="M877.906 748.666H863.041L855.969 691.301H877.909L877.906 748.666Z" fill="#FFB6B6"/>
<path d="M881.698 743.811H852.42C847.473 743.811 842.728 745.777 839.229 749.277C835.73 752.777 833.764 757.523 833.764 762.473V763.08H881.698V743.811Z" fill="#2F2E41"/>
<path d="M1055.61 728.82L1042.67 736.131L1008.32 689.659L1027.42 678.87L1055.61 728.82Z" fill="#FFB6B6"/>
<path d="M1056.53 722.728L1031.03 737.121C1026.73 739.555 1023.56 743.601 1022.23 748.37C1020.91 753.139 1021.53 758.239 1023.96 762.55L1024.26 763.077L1066 739.505L1056.53 722.728Z" fill="#2F2E41"/>
<path d="M960.604 490.693L961.751 496.431C961.751 496.431 965.192 499.874 963.471 501.595C961.751 503.316 962.324 511.35 962.324 511.35C963.287 525.998 982.42 608.313 985.842 624.389C985.842 624.389 1012.23 641.603 1032.88 675.457C1053.53 709.311 1054.1 717.919 1054.1 717.919L1031.16 727.675L973.802 658.245C973.802 658.245 957.742 648.49 952.005 639.883C946.268 631.277 910.7 542.335 910.7 542.335L890.62 635.292C890.62 635.292 891.767 669.146 886.605 690.951C883.431 704.712 881.512 718.732 880.87 732.839L853.911 729.97C853.911 729.97 855.631 648.49 858.499 639.882C858.499 639.882 846.453 540.614 870.545 501.021L889.96 449.241L908.976 441.919L960.604 490.693Z" fill="#2F2E41"/>
<path d="M943.675 274.514C907.483 275.132 907.489 328.987 943.675 329.599C979.864 328.98 979.859 275.126 943.675 274.514Z" fill="#FFB8B8"/>
<path d="M915.821 300.628H921.972L923.647 296.438L922.809 300.628H956.452L955.36 291.861L963.538 300.628H971.695V295.877C971.697 292.207 970.977 288.573 969.576 285.182C968.175 281.79 966.119 278.708 963.527 276.111C960.935 273.514 957.857 271.454 954.468 270.047C951.08 268.64 947.448 267.915 943.779 267.912C940.111 267.91 936.478 268.63 933.088 270.032C929.697 271.434 926.616 273.49 924.021 276.083C921.425 278.676 919.365 281.756 917.958 285.145C916.552 288.535 915.827 292.168 915.824 295.838V295.877L915.821 300.628Z" fill="#2F2E41"/>
<path d="M906.354 345.681L974.743 346.236L960.294 492.91C960.294 492.91 880.314 488.687 880.265 464.265L887.757 442.563L906.354 345.681Z" fill="#3F3D56"/>
<path d="M977.683 507.089C976.631 505.801 975.875 504.298 975.467 502.686C975.06 501.074 975.01 499.392 975.322 497.759C975.634 496.126 976.301 494.581 977.274 493.233C978.248 491.885 979.505 490.768 980.957 489.958L977.985 464.137L993.23 458.502L996.915 495.028C998.105 497.557 998.327 500.435 997.54 503.117C996.753 505.8 995.011 508.101 992.643 509.586C990.275 511.071 987.446 511.636 984.689 511.176C981.933 510.716 979.44 509.262 977.683 507.089Z" fill="#FFB6B6"/>
<path d="M965.751 358.871L974.749 346.289C974.749 346.289 980.908 344.922 988.183 353.413C995.459 361.904 999.703 468.043 999.703 468.043L973.026 474.108L957.263 398.901L965.751 358.871Z" fill="#3F3D56"/>
<path d="M815.01 473.972L816.994 568.268L878.017 600.528L989.146 580.676L991.876 482.657L921.427 457.841L815.01 473.972Z" fill="white"/>
<path d="M877.858 601.547L816.032 568.862L814.017 473.136L921.521 456.842L921.75 456.922L992.869 481.974L990.099 581.496L877.858 601.547ZM817.956 567.674L878.175 599.509L988.195 579.856L990.881 483.341L921.333 458.842L816.002 474.807L817.956 567.674Z" fill="#CACACA"/>
<path d="M876.655 499.539L876.416 499.444L814.65 474.877L815.369 473.066L876.897 497.537L991.742 481.692L992.009 483.623L876.655 499.539Z" fill="#CACACA"/>
<path d="M877.751 498.526L875.802 498.55L877.042 600.54L878.991 600.516L877.751 498.526Z" fill="#CACACA"/>
<path d="M868.85 494.658L846.584 485.628L953.769 468.543L976.035 477.571L868.85 494.658Z" fill="#CACACA"/>
<path d="M815.395 501.326L814.624 503.117L840.448 514.239L841.218 512.448L815.395 501.326Z" fill="#CACACA"/>
<path d="M827.089 533.495L826.318 535.286L852.141 546.408L852.912 544.618L827.089 533.495Z" fill="#EEDD82"/>
<path d="M475.491 604.978L477.475 699.274L538.497 731.534L649.627 711.682L652.356 613.663L581.907 588.847L475.491 604.978Z" fill="white"/>
<path d="M538.338 732.552L476.513 699.868L474.498 604.142L582.002 587.847L582.231 587.928L653.35 612.979L650.579 712.501L538.338 732.552ZM478.437 698.68L538.656 730.515L648.675 710.861L651.362 614.346L581.813 589.847L476.483 605.812L478.437 698.68Z" fill="#CACACA"/>
<path d="M537.135 630.544L536.897 630.45L475.131 605.883L475.85 604.072L537.378 628.543L652.223 612.697L652.49 614.628L537.135 630.544Z" fill="#CACACA"/>
<path d="M538.231 629.532L536.282 629.556L537.523 731.545L539.472 731.521L538.231 629.532Z" fill="#CACACA"/>
<path d="M523.937 623.444L507.065 616.634L614.25 599.548L631.12 606.358L523.937 623.444Z" fill="#CACACA"/>
<path d="M475.876 632.332L475.105 634.123L500.928 645.245L501.699 643.454L475.876 632.332Z" fill="#CACACA"/>
<path d="M487.569 664.501L486.799 666.292L512.622 677.414L513.393 675.623L487.569 664.501Z" fill="#EEDD82"/>
<path d="M581.503 617.906L583.807 727.37L654.644 764.818L783.648 741.773L786.816 627.989L705.036 599.182L581.503 617.906Z" fill="#EEDD82"/>
<path d="M654.459 766L582.69 728.059L580.351 616.936L705.146 598.021L705.412 598.114L787.969 627.195L784.753 742.724L654.459 766ZM584.923 726.68L654.828 763.635L782.543 740.82L785.662 628.782L704.927 600.343L582.655 618.876L584.923 726.68Z" fill="#3F3D56"/>
<path d="M653.063 647.586L652.787 647.476L581.085 618.958L581.921 616.854L653.344 645.262L786.66 626.868L786.97 629.11L653.063 647.586Z" fill="#3F3D56"/>
<path d="M654.335 646.41L652.073 646.438L653.513 764.831L655.775 764.804L654.335 646.41Z" fill="#3F3D56"/>
<path d="M638.888 639.395L618.156 631.438L742.58 611.604L763.314 619.561L638.888 639.395Z" fill="#3F3D56"/>
<path d="M581.95 649.66L581.056 651.739L611.032 664.65L611.927 662.572L581.95 649.66Z" fill="#3F3D56"/>
<path d="M595.525 687.004L594.63 689.082L624.607 701.994L625.502 699.915L595.525 687.004Z" fill="white"/>
<path d="M849.608 489.564C851.113 488.858 852.444 487.83 853.509 486.553C854.573 485.276 855.345 483.781 855.77 482.174C856.194 480.566 856.261 478.885 855.966 477.249C855.671 475.613 855.022 474.061 854.062 472.703L867.912 450.711L856.606 439.032L837.483 470.363C835.31 472.127 833.86 474.627 833.406 477.39C832.953 480.152 833.528 482.984 835.022 485.351C836.516 487.717 838.827 489.454 841.515 490.23C844.203 491.007 847.083 490.77 849.608 489.565V489.564Z" fill="#FFB6B6"/>
<path d="M916.864 351.462L906.941 344.922C906.941 344.922 899.284 346.639 891.14 362.309C882.997 377.979 850.155 448.035 850.155 448.035L863.655 461.742L899.668 406.782L916.864 351.462Z" fill="#3F3D56"/>
</g>
</svg>
