<svg width="487" height="759" viewBox="0 0 487 759" fill="none" xmlns="http://www.w3.org/2000/svg">
<path d="M207.5 374.5L212.5 380L218 384.5L226 387.5H234L242 387L249.5 384.5L255.5 380L261 374.5L486.5 751.5L234 758.5H0L207.5 374.5Z" fill="url(#paint0_linear_14:48)"/>
<g filter="url(#filter0_d_14:48)">
<path fill-rule="evenodd" clip-rule="evenodd" d="M233.401 164.126C231.176 164.601 229.844 165.481 228.831 167.142C227.953 168.582 227.902 169.692 227.9 187.148L227.898 205.63L225.466 205.863C221.25 206.268 221.463 205.648 218.529 226.116C217.101 236.077 215.772 244.352 215.575 244.505C215.378 244.658 213.947 245.632 212.393 246.669C210.84 247.707 208.493 249.85 207.177 251.431C205.021 254.021 202.086 259.271 201.464 261.651C201.318 262.211 199.665 263.361 197.215 264.608C184.127 271.273 172.248 282.175 164.343 294.778C159.517 302.473 155.056 313.634 153.259 322.509C152.262 327.435 151.16 338.585 151.599 339.297C151.763 339.561 185.31 339.736 235.583 339.736H319.295L319.292 337.224C319.29 335.842 318.975 332.626 318.591 330.078C314.299 301.605 297.206 277.351 272.447 264.604C270.273 263.484 268.379 262.22 268.238 261.794C265.988 254.971 260.292 247.902 254.377 244.591C253.955 244.355 252.9 238.346 251.171 226.339L248.595 208.437L247.092 207.095C245.977 206.099 245.095 205.751 243.682 205.751H241.775V187.553C241.775 167.848 241.669 166.928 239.194 165.306C237.564 164.238 235.166 163.749 233.401 164.126ZM199.405 355.886C200.374 362.629 203.97 371.132 207.993 376.189C212.499 381.854 219.378 386.355 225.868 387.885C230.483 388.972 238.399 388.563 243.291 386.984C253.261 383.766 261.328 376.493 265.755 366.73C267.15 363.652 269.041 356.739 269.047 354.689L269.051 353.613H234.064H199.079L199.405 355.886Z" fill="#CCCCCC"/>
</g>
<rect x="227.5" y="-3" width="14" height="209" fill="#CCCCCC"/>
<defs>
<filter id="filter0_d_14:48" x="145.5" y="158" width="183.795" height="240.494" filterUnits="userSpaceOnUse" color-interpolation-filters="sRGB">
<feFlood flood-opacity="0" result="BackgroundImageFix"/>
<feColorMatrix in="SourceAlpha" type="matrix" values="0 0 0 0 0 0 0 0 0 0 0 0 0 0 0 0 0 0 127 0" result="hardAlpha"/>
<feOffset dx="2" dy="2"/>
<feGaussianBlur stdDeviation="4"/>
<feComposite in2="hardAlpha" operator="out"/>
<feColorMatrix type="matrix" values="0 0 0 0 0 0 0 0 0 0 0 0 0 0 0 0 0 0 0.25 0"/>
<feBlend mode="normal" in2="BackgroundImageFix" result="effect1_dropShadow_14:48"/>
<feBlend mode="normal" in="SourceGraphic" in2="effect1_dropShadow_14:48" result="shape"/>
</filter>
<linearGradient id="paint0_linear_14:48" x1="237.5" y1="380.5" x2="232.5" y2="752" gradientUnits="userSpaceOnUse">
<stop stop-color="#EEDD82" stop-opacity="0.4"/>
<stop offset="1" stop-color="#EEDD82" stop-opacity="0"/>
</linearGradient>
</defs>
</svg>
