<svg width="403" height="397" viewBox="0 0 403 397" fill="none" xmlns="http://www.w3.org/2000/svg">
<g clip-path="url(#clip0_22:72)">
<path d="M58.8885 253.258C91.4117 253.258 117.777 226.868 117.777 194.315C117.777 161.761 91.4117 135.371 58.8885 135.371C26.3653 135.371 0 161.761 0 194.315C0 226.868 26.3653 253.258 58.8885 253.258Z" fill="#F2F2F2"/>
<path d="M59.4147 196.772C72.3839 196.772 82.8975 186.249 82.8975 173.267C82.8975 160.286 72.3839 149.763 59.4147 149.763C46.4454 149.763 35.9318 160.286 35.9318 173.267C35.9318 186.249 46.4454 196.772 59.4147 196.772Z" fill="#2F2E41"/>
<path d="M118.096 59.0479C118.075 70.7057 114.601 82.0957 108.114 91.7773C101.626 101.459 92.4152 108.998 81.6468 113.44C70.8785 117.882 59.0359 119.028 47.6167 116.734C36.1975 114.439 25.7145 108.807 17.4935 100.549C9.27237 92.2906 3.68239 81.778 1.43043 70.3401C-0.821542 58.9022 0.365642 47.0527 4.84184 36.2902C9.31805 25.5276 16.8822 16.3353 26.5778 9.87576C36.2735 3.41618 47.6651 -0.020576 59.3121 9.26805e-05C67.0511 -0.00627491 74.7151 1.51822 81.8636 4.48597C89.0121 7.45372 95.5042 11.8062 100.967 17.2933C106.429 22.7804 110.755 29.294 113.694 36.4596C116.634 43.6252 118.13 51.3017 118.096 59.0479Z" fill="#F2F2F2"/>
<path d="M198.629 253.258C231.152 253.258 257.518 226.868 257.518 194.315C257.518 161.761 231.152 135.371 198.629 135.371C166.106 135.371 139.741 161.761 139.741 194.315C139.741 226.868 166.106 253.258 198.629 253.258Z" fill="#F2F2F2"/>
<path d="M198.458 117.887C230.981 117.887 257.346 91.4968 257.346 58.9433C257.346 26.3898 230.981 0 198.458 0C165.935 0 139.569 26.3898 139.569 58.9433C139.569 91.4968 165.935 117.887 198.458 117.887Z" fill="#F2F2F2"/>
<path d="M341.983 117.887C374.506 117.887 400.872 91.4968 400.872 58.9433C400.872 26.3898 374.506 0 341.983 0C309.46 0 283.095 26.3898 283.095 58.9433C283.095 91.4968 309.46 117.887 341.983 117.887Z" fill="#F2F2F2"/>
<path d="M344.112 253.258C376.635 253.258 403 226.868 403 194.315C403 161.761 376.635 135.371 344.112 135.371C311.588 135.371 285.223 161.761 285.223 194.315C285.223 226.868 311.588 253.258 344.112 253.258Z" fill="#F2F2F2"/>
<path d="M118.096 338.056C118.096 349.714 114.642 361.11 108.172 370.803C101.701 380.497 92.5038 388.051 81.7433 392.513C70.9829 396.974 59.1423 398.141 47.7191 395.867C36.2959 393.593 25.8029 387.979 17.5672 379.735C9.33152 371.492 3.72293 360.989 1.4507 349.555C-0.821522 338.122 0.344673 326.27 4.8018 315.5C9.25893 304.729 16.8068 295.523 26.491 289.047C36.1751 282.57 47.5606 279.113 59.2077 279.113C66.9507 279.078 74.6238 280.579 81.784 283.529C88.9443 286.479 95.4498 290.82 100.925 296.3C106.4 301.78 110.737 308.292 113.684 315.459C116.631 322.626 118.131 330.306 118.096 338.056Z" fill="#F2F2F2"/>
<path d="M202.242 397C234.766 397 261.131 370.61 261.131 338.057C261.131 305.503 234.766 279.113 202.242 279.113C169.719 279.113 143.354 305.503 143.354 338.057C143.354 370.61 169.719 397 202.242 397Z" fill="#F2F2F2"/>
<path d="M31.9133 39.769C34.3483 32.0015 39.8857 24.8774 47.5436 22.2516C55.202 19.6257 66.4159 23.6258 72.1733 29.369C82.7047 39.8746 85.2748 75.9652 78.0393 87.3702C76.6001 87.294 71.6341 87.2376 70.1775 87.183L68.1169 80.3088V87.1152C65.7963 87.0434 63.4576 86.9938 61.1007 86.9665C53.1985 86.8684 45.642 83.7076 40.0199 78.1484C34.3978 72.5893 31.1479 65.065 30.9535 57.1572C30.765 49.5922 30.9537 42.8301 31.9133 39.769Z" fill="#2F2E41"/>
<path d="M58.3343 65.5124C67.6032 65.5124 75.1171 57.9915 75.1171 48.714C75.1171 39.4364 67.6032 31.9155 58.3343 31.9155C49.0654 31.9155 41.5515 39.4364 41.5515 48.714C41.5515 57.9915 49.0654 65.5124 58.3343 65.5124Z" fill="#9E616A"/>
<path d="M43.8502 33.961L63.1739 24.2761C67.1246 26.058 70.527 28.8654 73.0284 32.407C75.5297 35.9487 77.0389 40.0956 77.3994 44.4179L77.8811 50.1926L69.7892 48.1308L68.9027 40.7467L67.5286 47.5548L63.7942 46.6038L63.8297 35.14L60.0931 46.5956L46.7556 43.5285L43.8502 33.961Z" fill="#2F2E41"/>
<path d="M182.458 172.197C187.05 172.197 190.772 168.472 190.772 163.876C190.772 159.28 187.05 155.554 182.458 155.554C177.867 155.554 174.144 159.28 174.144 163.876C174.144 168.472 177.867 172.197 182.458 172.197Z" fill="#2F2E41"/>
<path d="M195.761 203.82C207.393 203.82 216.823 194.382 216.823 182.738C216.823 171.095 207.393 161.656 195.761 161.656C184.128 161.656 174.698 171.095 174.698 182.738C174.698 194.382 184.128 203.82 195.761 203.82Z" fill="#2F2E41"/>
<path d="M197.504 203.815C206.956 203.815 214.619 196.145 214.619 186.684C214.619 177.222 206.956 169.552 197.504 169.552C188.051 169.552 180.388 177.222 180.388 186.684C180.388 196.145 188.051 203.815 197.504 203.815Z" fill="#9E616A"/>
<path d="M209.127 169.22C206.128 167.39 202.692 166.4 199.18 166.354C195.668 166.308 192.208 167.207 189.161 168.957C186.115 170.707 183.594 173.245 181.863 176.304C180.132 179.363 179.254 182.831 179.32 186.347C188.041 188.538 197.203 190.215 206.504 186.871L208.7 181.49L209.995 186.875C212.827 188.034 215.667 189.014 218.507 186.864C218.623 183.358 217.817 179.884 216.171 176.788C214.525 173.692 212.096 171.082 209.127 169.22Z" fill="#2F2E41"/>
<path d="M174.717 141.285C168.968 138.646 161.755 139.884 156.968 144.022C152.181 148.159 149.905 154.893 150.829 161.155C151.772 167.544 155.652 173.046 159.229 178.421C162.806 183.796 166.3 189.685 166.296 196.143C166.293 200.795 164.448 205.255 161.164 208.547C157.88 211.838 153.426 213.692 148.779 213.701C154.233 216.051 159.926 218.447 165.857 218.169C171.789 217.89 178.006 214.073 178.974 208.209C179.671 203.984 177.6 199.863 175.873 195.945C173.059 189.561 171.025 182.86 169.816 175.988C169.239 172.708 168.863 169.26 169.931 166.106C170.782 163.769 172.361 161.767 174.434 160.396C176.508 159.025 178.967 158.357 181.448 158.491L183.408 156.726C184.28 150.456 180.467 143.923 174.717 141.285Z" fill="#2F2E41"/>
<path d="M317.95 35.8879C317.141 40.2343 315.816 44.4683 314.002 48.4993C303.614 70.4954 333.197 63.3258 343.769 63.3258C355.328 63.3258 366.388 69.4096 364.698 42.377C363.977 30.8299 355.328 21.4282 343.769 21.4282C333.896 21.4282 320.014 25.8208 317.95 35.8879Z" fill="#2F2E41"/>
<path d="M342.037 63.3207C351.43 63.3207 359.045 55.6991 359.045 46.2974C359.045 36.8957 351.43 29.2742 342.037 29.2742C332.644 29.2742 325.03 36.8957 325.03 46.2974C325.03 55.6991 332.644 63.3207 342.037 63.3207Z" fill="#FFB6B6"/>
<path d="M330.488 28.9445C333.468 27.126 336.881 26.1422 340.371 26.0962C343.862 26.0501 347.3 26.9434 350.327 28.6827C353.354 30.422 355.859 32.9433 357.579 35.9831C359.299 39.0229 360.172 42.4695 360.106 45.9625C351.44 48.1404 342.336 49.807 333.094 46.4834L330.911 41.1369L329.625 46.4874C326.81 47.6388 323.988 48.6131 321.167 46.4763C321.051 42.9931 321.852 39.5407 323.487 36.4641C325.123 33.3876 327.537 30.7946 330.488 28.9445Z" fill="#2F2E41"/>
<path d="M59.4242 199.86C71.0102 199.86 80.4025 190.459 80.4025 178.862C80.4025 167.266 71.0102 157.865 59.4242 157.865C47.8383 157.865 38.446 167.266 38.446 178.862C38.446 190.459 47.8383 199.86 59.4242 199.86Z" fill="#FFB8B8"/>
<path d="M200.946 344.171C210.813 344.171 218.811 336.165 218.811 326.289C218.811 316.413 210.813 308.407 200.946 308.407C191.079 308.407 183.081 316.413 183.081 326.289C183.081 336.165 191.079 344.171 200.946 344.171Z" fill="#9E616A"/>
<path d="M200.858 64.9559C211.463 64.9559 220.061 56.3506 220.061 45.7355C220.061 35.1204 211.463 26.5151 200.858 26.5151C190.253 26.5151 181.656 35.1204 181.656 45.7355C181.656 56.3506 190.253 64.9559 200.858 64.9559Z" fill="#FFB8B8"/>
<path d="M217.765 33.0381C217.765 33.0381 222.765 23.4714 211.766 22.6017C211.766 22.6017 202.388 14.0875 192.831 21.0452C192.831 21.0452 187.617 21.0452 184.766 26.9502C184.766 26.9502 180.666 25.3937 179.765 29.5593C179.765 29.5593 176.765 38.2563 179.765 46.0837C182.765 53.911 183.762 54.7807 183.762 54.7807C183.762 54.7807 181.657 45.0674 193.657 44.1977C205.658 43.328 216.667 35.8033 217.667 45.37C218.667 54.9367 219.766 50.6151 219.766 50.6151C219.766 50.6151 229.265 36.9518 217.765 33.0381Z" fill="#2F2E41"/>
<path d="M342.486 201.617C352.868 201.617 361.284 193.193 361.284 182.801C361.284 172.41 352.868 163.986 342.486 163.986C332.104 163.986 323.688 172.41 323.688 182.801C323.688 193.193 332.104 201.617 342.486 201.617Z" fill="#FFB6B6"/>
<path d="M83.2918 323.953V323.953L83.0004 324.479C85.5939 318.081 83.2356 310.198 78.609 305.374C73.9825 300.55 67.5508 298.344 61.2175 297.469C56.5161 296.82 51.6361 296.839 47.1657 298.562C40.6921 301.058 35.7461 306.837 31.6166 312.848C29.7277 315.598 27.8705 318.732 28.0587 322.169C28.2333 325.358 30.1246 328.064 31.6733 330.77C33.2223 333.475 34.5156 336.832 33.4041 339.785C32.7417 341.545 31.3417 342.812 30.2058 344.252C29.0699 345.691 28.1354 347.637 28.6842 349.443C28.9278 350.134 29.3463 350.75 29.8989 351.231C30.4515 351.712 31.1192 352.041 31.8368 352.186C33.21 352.506 34.6346 352.297 36.0254 352.086L72.1245 346.627C74.5775 346.256 76.9045 345.297 78.907 343.832C80.9096 342.366 82.5283 340.437 83.6253 338.21C84.7222 335.983 85.2648 333.523 85.2067 331.041C85.1486 328.558 84.4916 326.127 83.2918 323.953Z" fill="#2F2E41"/>
<path d="M73.8623 331.539C75.4237 321.909 68.8895 312.834 59.2678 311.272C49.6461 309.709 40.5804 316.249 39.019 325.88C37.4576 335.51 43.9918 344.585 53.6135 346.147C63.2353 347.71 72.3009 341.17 73.8623 331.539Z" fill="#FFB9B9"/>
<path d="M103.426 376.974C93.2237 388.594 78.8656 395.731 63.4511 396.846C48.0367 397.962 32.8025 392.965 21.037 382.934L26.088 368.827C27.2295 366.321 29.0308 364.174 31.2988 362.615C33.5668 361.056 36.2159 360.145 38.9621 359.978L42.1754 359.781L49.8376 353.166C49.8376 353.166 70.4828 352.429 70.1766 352.075L82.682 359.604L82.6717 359.552L87.5877 359.854C90.3341 360.019 92.9835 360.931 95.2516 362.49C97.5198 364.049 99.3209 366.196 100.462 368.702L103.426 376.974Z" fill="#EEDD82"/>
<path d="M245.664 376.974C235.461 388.594 221.103 395.731 205.689 396.846C190.274 397.962 175.04 392.965 163.275 382.934L168.326 368.827C169.467 366.321 171.269 364.174 173.537 362.615C175.804 361.056 178.454 360.145 181.2 359.978L184.413 359.781L192.075 353.166C192.075 353.166 212.721 352.429 212.414 352.075L224.92 359.604L224.909 359.552L229.825 359.854C232.572 360.019 235.221 360.931 237.489 362.49C239.757 364.049 241.559 366.196 242.699 368.702L245.664 376.974Z" fill="#EEDD82"/>
<path d="M73.1817 312.313C72.7261 309.901 70.2679 308.797 68.1617 308.263C62.0526 306.703 55.6977 306.353 49.4547 307.234C44.9037 307.884 40.2446 309.317 36.9424 312.872C34.2797 315.866 32.771 319.712 32.6874 323.72C32.5527 326.116 33.0876 328.502 34.2321 330.611C35.4205 332.624 37.4459 334.085 39.5368 334.033L39.7486 334.77C48.6098 333.535 56.8412 328.016 62.0254 319.835C61.0524 323.313 59.1161 326.443 56.4404 328.866C62.4229 326.47 67.6233 322.458 71.4621 317.278C72.5104 315.885 73.5282 314.149 73.1817 312.313Z" fill="#2F2E41"/>
<path d="M102.907 233.045C92.7046 244.665 78.3465 251.802 62.932 252.918C47.5176 254.033 32.2834 249.036 20.5179 239.005L25.5689 224.898C26.7104 222.392 28.5117 220.245 30.7797 218.686C33.0477 217.127 35.6968 216.216 38.443 216.049L41.6563 215.852L49.3185 209.237C49.3185 209.237 69.9637 208.5 69.6575 208.146L82.163 215.675L82.1526 215.623L87.0686 215.925C89.815 216.09 92.4644 217.002 94.7326 218.561C97.0007 220.12 98.8018 222.267 99.9427 224.773L102.907 233.045Z" fill="#EEDD82"/>
<path d="M242.938 233.752C232.736 245.372 218.378 252.509 202.964 253.624C187.549 254.739 172.315 249.742 160.55 239.712L165.601 225.605C166.742 223.099 168.543 220.952 170.811 219.393C173.079 217.834 175.728 216.923 178.475 216.756L181.688 216.559L189.35 209.944C189.35 209.944 209.995 209.206 209.689 208.853L222.195 216.382L222.184 216.33L227.1 216.631C229.847 216.797 232.496 217.708 234.764 219.267C237.032 220.826 238.833 222.974 239.974 225.48L242.938 233.752Z" fill="#EEDD82"/>
<path d="M388.291 233.752C378.089 245.372 363.731 252.509 348.316 253.624C332.902 254.739 317.667 249.742 305.902 239.712L310.953 225.605C312.094 223.099 313.896 220.952 316.164 219.393C318.432 217.834 321.081 216.923 323.827 216.756L327.04 216.559L334.703 209.944C334.703 209.944 355.348 209.206 355.041 208.853L367.547 216.382L367.537 216.33L372.453 216.631C375.199 216.797 377.848 217.708 380.117 219.267C382.385 220.826 384.186 222.974 385.327 225.48L388.291 233.752Z" fill="#EEDD82"/>
<path d="M102.907 97.9495C92.7046 109.569 78.3465 116.707 62.932 117.822C47.5176 118.937 32.2834 113.94 20.5179 103.909L25.5689 89.8022C26.7104 87.2966 28.5117 85.1492 30.7797 83.5903C33.0477 82.0315 35.6968 81.1199 38.443 80.9534L41.6563 80.7559L49.3185 74.1415C49.3185 74.1415 69.9637 73.4036 69.6575 73.0503L82.163 80.5793L82.1526 80.5273L87.0686 80.8287C89.815 80.9945 92.4644 81.9058 94.7326 83.4647C97.0007 85.0237 98.8018 87.1714 99.9427 89.6775L102.907 97.9495Z" fill="#EEDD82"/>
<path d="M242.419 98.137C232.217 109.756 217.859 116.894 202.445 118.009C187.03 119.124 171.796 114.127 160.03 104.097L165.081 89.9897C166.223 87.484 168.024 85.3367 170.292 83.7778C172.56 82.2189 175.209 81.3074 177.955 81.1409L181.169 80.9434L188.831 74.3289C188.831 74.3289 209.476 73.5911 209.17 73.2378L221.675 80.7668L221.665 80.7148L226.581 81.0162C229.327 81.182 231.977 82.0933 234.245 83.6522C236.513 85.2112 238.314 87.3589 239.455 89.865L242.419 98.137Z" fill="#EEDD82"/>
<path d="M387.772 98.137C377.569 109.756 363.211 116.894 347.797 118.009C332.383 119.124 317.148 114.127 305.383 104.097L310.434 89.9897C311.575 87.484 313.377 85.3367 315.645 83.7778C317.913 82.2189 320.562 81.3074 323.308 81.1409L326.521 80.9434L334.183 74.3289C334.183 74.3289 354.829 73.5911 354.522 73.2378L367.028 80.7668L367.017 80.7148L371.933 81.0162C374.68 81.182 377.329 82.0933 379.597 83.6522C381.866 85.2112 383.667 87.3589 384.808 89.865L387.772 98.137Z" fill="#EEDD82"/>
<path d="M362.312 171.132C360.723 165.442 357.114 160.527 352.162 157.31C348.215 154.784 343.291 153.494 338.82 154.83C334.349 156.166 330.647 160.558 330.94 165.303C329.326 164.754 327.491 165.485 326.31 166.734C325.129 167.984 324.493 169.665 324.038 171.338C322.604 176.658 322.699 182.275 324.313 187.544L324.224 188.3C326.405 187.939 328.06 186.066 329.088 184.07C330.117 182.074 330.709 179.86 331.824 177.913C332.94 175.966 334.791 174.229 337 174.168L336.806 177.548C338.706 176.568 340.607 175.588 342.507 174.607C342.055 175.69 341.603 176.772 341.151 177.855C342.811 177.16 344.471 176.466 346.13 175.772C345.945 176.812 345.759 177.853 345.574 178.894C347.22 175.144 352.31 173.496 355.773 175.593C357.784 176.811 359.104 178.981 359.798 181.26C360.492 183.539 360.629 185.95 360.761 188.332C363.326 182.972 363.876 176.866 362.312 171.132Z" fill="#2F2E41"/>
<path d="M184.713 334.556C184.678 334.458 184.646 334.359 184.611 334.261C184.543 334.322 184.477 334.384 184.402 334.441L184.713 334.556Z" fill="#2F2E41"/>
<path d="M222.347 319.927C222.255 318.113 221.78 316.338 220.954 314.721C220.127 313.104 218.967 311.68 217.551 310.544C216.509 309.72 215.305 309.024 214.616 307.888C214.223 307.084 213.889 306.253 213.619 305.4C212.247 302.132 208.339 300.396 204.833 300.89C201.326 301.385 198.292 303.746 196.248 306.64C195.241 306.157 194.117 305.973 193.009 306.11C191.901 306.246 190.855 306.698 189.995 307.411C189.136 308.124 188.498 309.069 188.158 310.134C187.818 311.199 187.79 312.338 188.078 313.418C186.262 311.954 183.325 313.126 182.192 315.165C181.058 317.204 181.238 319.7 181.575 322.009C182.186 326.182 183.203 330.286 184.611 334.261C186.379 332.703 186.271 329.865 186.055 327.467C185.83 324.974 185.965 321.932 188.142 320.702C190.245 319.514 192.798 320.818 195.118 321.493C196.951 322.013 198.876 322.128 200.759 321.832C202.641 321.536 204.438 320.834 206.023 319.776C207.231 318.958 208.307 317.933 209.609 317.275C210.912 316.618 212.569 316.389 213.782 317.201C214.889 317.942 215.34 319.325 215.716 320.604C216.609 323.635 217.502 326.666 218.395 329.697C219.706 328.441 220.736 326.92 221.417 325.236C222.098 323.552 222.415 321.743 222.347 319.927Z" fill="#2F2E41"/>
<path d="M81.5566 171.498C81.7038 169.93 81.7712 168.356 81.7587 166.782C81.8444 163.668 81.2744 160.57 80.0856 157.691C78.6237 154.504 76.017 151.983 72.7836 150.631C69.5788 149.337 65.997 149.34 62.7945 150.639C59.903 148.811 56.6903 147.361 53.3069 147.182C49.9235 147.002 46.3463 148.258 44.2613 151.024C43.7957 151.754 43.2669 152.442 42.6809 153.079C41.0049 154.633 38.4579 154.409 36.2302 154.091C37.2293 154.948 38.2288 155.805 39.2285 156.662C38.019 156.979 36.8094 157.295 35.5997 157.611C37.0112 158.468 38.4226 159.325 39.8339 160.182C35.7364 162.643 33.874 168.017 34.3659 172.896C34.8314 177.516 37.0598 181.741 39.7237 185.496C40.7864 183.252 40.5574 180.566 40.5399 178.038C40.5302 177.218 40.5801 176.398 40.6894 175.585C49.6923 177.746 59.0991 179.132 68.6388 175.701L70.5532 171.011C70.8219 171.039 71.0907 171.065 71.3592 171.093L72.4683 175.705C74.9829 176.734 77.5028 177.633 80.0236 176.689C80.1463 177.401 80.2201 178.128 80.2769 178.827C80.4932 177.991 80.6809 177.149 80.8502 176.303C81.1833 176.125 81.5024 175.921 81.8046 175.693C81.8655 174.29 81.7824 172.884 81.5566 171.498Z" fill="#2F2E41"/>
</g>
<defs>
<clipPath id="clip0_22:72">
<rect width="403" height="397" fill="white"/>
</clipPath>
</defs>
</svg>
<svg width="403" height="397" viewBox="0 0 403 397" fill="none" xmlns="http://www.w3.org/2000/svg">
<g clip-path="url(#clip0_22:72)">
<path d="M58.8885 253.258C91.4117 253.258 117.777 226.868 117.777 194.315C117.777 161.761 91.4117 135.371 58.8885 135.371C26.3653 135.371 0 161.761 0 194.315C0 226.868 26.3653 253.258 58.8885 253.258Z" fill="#F2F2F2"/>
<path d="M59.4147 196.772C72.3839 196.772 82.8975 186.249 82.8975 173.267C82.8975 160.286 72.3839 149.763 59.4147 149.763C46.4454 149.763 35.9318 160.286 35.9318 173.267C35.9318 186.249 46.4454 196.772 59.4147 196.772Z" fill="#2F2E41"/>
<path d="M118.096 59.0479C118.075 70.7057 114.601 82.0957 108.114 91.7773C101.626 101.459 92.4152 108.998 81.6468 113.44C70.8785 117.882 59.0359 119.028 47.6167 116.734C36.1975 114.439 25.7145 108.807 17.4935 100.549C9.27237 92.2906 3.68239 81.778 1.43043 70.3401C-0.821542 58.9022 0.365642 47.0527 4.84184 36.2902C9.31805 25.5276 16.8822 16.3353 26.5778 9.87576C36.2735 3.41618 47.6651 -0.020576 59.3121 9.26805e-05C67.0511 -0.00627491 74.7151 1.51822 81.8636 4.48597C89.0121 7.45372 95.5042 11.8062 100.967 17.2933C106.429 22.7804 110.755 29.294 113.694 36.4596C116.634 43.6252 118.13 51.3017 118.096 59.0479Z" fill="#F2F2F2"/>
<path d="M198.629 253.258C231.152 253.258 257.518 226.868 257.518 194.315C257.518 161.761 231.152 135.371 198.629 135.371C166.106 135.371 139.741 161.761 139.741 194.315C139.741 226.868 166.106 253.258 198.629 253.258Z" fill="#F2F2F2"/>
<path d="M198.458 117.887C230.981 117.887 257.346 91.4968 257.346 58.9433C257.346 26.3898 230.981 0 198.458 0C165.935 0 139.569 26.3898 139.569 58.9433C139.569 91.4968 165.935 117.887 198.458 117.887Z" fill="#F2F2F2"/>
<path d="M341.983 117.887C374.506 117.887 400.872 91.4968 400.872 58.9433C400.872 26.3898 374.506 0 341.983 0C309.46 0 283.095 26.3898 283.095 58.9433C283.095 91.4968 309.46 117.887 341.983 117.887Z" fill="#F2F2F2"/>
<path d="M344.112 253.258C376.635 253.258 403 226.868 403 194.315C403 161.761 376.635 135.371 344.112 135.371C311.588 135.371 285.223 161.761 285.223 194.315C285.223 226.868 311.588 253.258 344.112 253.258Z" fill="#F2F2F2"/>
<path d="M118.096 338.056C118.096 349.714 114.642 361.11 108.172 370.803C101.701 380.497 92.5038 388.051 81.7433 392.513C70.9829 396.974 59.1423 398.141 47.7191 395.867C36.2959 393.593 25.8029 387.979 17.5672 379.735C9.33152 371.492 3.72293 360.989 1.4507 349.555C-0.821522 338.122 0.344673 326.27 4.8018 315.5C9.25893 304.729 16.8068 295.523 26.491 289.047C36.1751 282.57 47.5606 279.113 59.2077 279.113C66.9507 279.078 74.6238 280.579 81.784 283.529C88.9443 286.479 95.4498 290.82 100.925 296.3C106.4 301.78 110.737 308.292 113.684 315.459C116.631 322.626 118.131 330.306 118.096 338.056Z" fill="#F2F2F2"/>
<path d="M202.242 397C234.766 397 261.131 370.61 261.131 338.057C261.131 305.503 234.766 279.113 202.242 279.113C169.719 279.113 143.354 305.503 143.354 338.057C143.354 370.61 169.719 397 202.242 397Z" fill="#F2F2F2"/>
<path d="M31.9133 39.769C34.3483 32.0015 39.8857 24.8774 47.5436 22.2516C55.202 19.6257 66.4159 23.6258 72.1733 29.369C82.7047 39.8746 85.2748 75.9652 78.0393 87.3702C76.6001 87.294 71.6341 87.2376 70.1775 87.183L68.1169 80.3088V87.1152C65.7963 87.0434 63.4576 86.9938 61.1007 86.9665C53.1985 86.8684 45.642 83.7076 40.0199 78.1484C34.3978 72.5893 31.1479 65.065 30.9535 57.1572C30.765 49.5922 30.9537 42.8301 31.9133 39.769Z" fill="#2F2E41"/>
<path d="M58.3343 65.5124C67.6032 65.5124 75.1171 57.9915 75.1171 48.714C75.1171 39.4364 67.6032 31.9155 58.3343 31.9155C49.0654 31.9155 41.5515 39.4364 41.5515 48.714C41.5515 57.9915 49.0654 65.5124 58.3343 65.5124Z" fill="#9E616A"/>
<path d="M43.8502 33.961L63.1739 24.2761C67.1246 26.058 70.527 28.8654 73.0284 32.407C75.5297 35.9487 77.0389 40.0956 77.3994 44.4179L77.8811 50.1926L69.7892 48.1308L68.9027 40.7467L67.5286 47.5548L63.7942 46.6038L63.8297 35.14L60.0931 46.5956L46.7556 43.5285L43.8502 33.961Z" fill="#2F2E41"/>
<path d="M182.458 172.197C187.05 172.197 190.772 168.472 190.772 163.876C190.772 159.28 187.05 155.554 182.458 155.554C177.867 155.554 174.144 159.28 174.144 163.876C174.144 168.472 177.867 172.197 182.458 172.197Z" fill="#2F2E41"/>
<path d="M195.761 203.82C207.393 203.82 216.823 194.382 216.823 182.738C216.823 171.095 207.393 161.656 195.761 161.656C184.128 161.656 174.698 171.095 174.698 182.738C174.698 194.382 184.128 203.82 195.761 203.82Z" fill="#2F2E41"/>
<path d="M197.504 203.815C206.956 203.815 214.619 196.145 214.619 186.684C214.619 177.222 206.956 169.552 197.504 169.552C188.051 169.552 180.388 177.222 180.388 186.684C180.388 196.145 188.051 203.815 197.504 203.815Z" fill="#9E616A"/>
<path d="M209.127 169.22C206.128 167.39 202.692 166.4 199.18 166.354C195.668 166.308 192.208 167.207 189.161 168.957C186.115 170.707 183.594 173.245 181.863 176.304C180.132 179.363 179.254 182.831 179.32 186.347C188.041 188.538 197.203 190.215 206.504 186.871L208.7 181.49L209.995 186.875C212.827 188.034 215.667 189.014 218.507 186.864C218.623 183.358 217.817 179.884 216.171 176.788C214.525 173.692 212.096 171.082 209.127 169.22Z" fill="#2F2E41"/>
<path d="M174.717 141.285C168.968 138.646 161.755 139.884 156.968 144.022C152.181 148.159 149.905 154.893 150.829 161.155C151.772 167.544 155.652 173.046 159.229 178.421C162.806 183.796 166.3 189.685 166.296 196.143C166.293 200.795 164.448 205.255 161.164 208.547C157.88 211.838 153.426 213.692 148.779 213.701C154.233 216.051 159.926 218.447 165.857 218.169C171.789 217.89 178.006 214.073 178.974 208.209C179.671 203.984 177.6 199.863 175.873 195.945C173.059 189.561 171.025 182.86 169.816 175.988C169.239 172.708 168.863 169.26 169.931 166.106C170.782 163.769 172.361 161.767 174.434 160.396C176.508 159.025 178.967 158.357 181.448 158.491L183.408 156.726C184.28 150.456 180.467 143.923 174.717 141.285Z" fill="#2F2E41"/>
<path d="M317.95 35.8879C317.141 40.2343 315.816 44.4683 314.002 48.4993C303.614 70.4954 333.197 63.3258 343.769 63.3258C355.328 63.3258 366.388 69.4096 364.698 42.377C363.977 30.8299 355.328 21.4282 343.769 21.4282C333.896 21.4282 320.014 25.8208 317.95 35.8879Z" fill="#2F2E41"/>
<path d="M342.037 63.3207C351.43 63.3207 359.045 55.6991 359.045 46.2974C359.045 36.8957 351.43 29.2742 342.037 29.2742C332.644 29.2742 325.03 36.8957 325.03 46.2974C325.03 55.6991 332.644 63.3207 342.037 63.3207Z" fill="#FFB6B6"/>
<path d="M330.488 28.9445C333.468 27.126 336.881 26.1422 340.371 26.0962C343.862 26.0501 347.3 26.9434 350.327 28.6827C353.354 30.422 355.859 32.9433 357.579 35.9831C359.299 39.0229 360.172 42.4695 360.106 45.9625C351.44 48.1404 342.336 49.807 333.094 46.4834L330.911 41.1369L329.625 46.4874C326.81 47.6388 323.988 48.6131 321.167 46.4763C321.051 42.9931 321.852 39.5407 323.487 36.4641C325.123 33.3876 327.537 30.7946 330.488 28.9445Z" fill="#2F2E41"/>
<path d="M59.4242 199.86C71.0102 199.86 80.4025 190.459 80.4025 178.862C80.4025 167.266 71.0102 157.865 59.4242 157.865C47.8383 157.865 38.446 167.266 38.446 178.862C38.446 190.459 47.8383 199.86 59.4242 199.86Z" fill="#FFB8B8"/>
<path d="M200.946 344.171C210.813 344.171 218.811 336.165 218.811 326.289C218.811 316.413 210.813 308.407 200.946 308.407C191.079 308.407 183.081 316.413 183.081 326.289C183.081 336.165 191.079 344.171 200.946 344.171Z" fill="#9E616A"/>
<path d="M200.858 64.9559C211.463 64.9559 220.061 56.3506 220.061 45.7355C220.061 35.1204 211.463 26.5151 200.858 26.5151C190.253 26.5151 181.656 35.1204 181.656 45.7355C181.656 56.3506 190.253 64.9559 200.858 64.9559Z" fill="#FFB8B8"/>
<path d="M217.765 33.0381C217.765 33.0381 222.765 23.4714 211.766 22.6017C211.766 22.6017 202.388 14.0875 192.831 21.0452C192.831 21.0452 187.617 21.0452 184.766 26.9502C184.766 26.9502 180.666 25.3937 179.765 29.5593C179.765 29.5593 176.765 38.2563 179.765 46.0837C182.765 53.911 183.762 54.7807 183.762 54.7807C183.762 54.7807 181.657 45.0674 193.657 44.1977C205.658 43.328 216.667 35.8033 217.667 45.37C218.667 54.9367 219.766 50.6151 219.766 50.6151C219.766 50.6151 229.265 36.9518 217.765 33.0381Z" fill="#2F2E41"/>
<path d="M342.486 201.617C352.868 201.617 361.284 193.193 361.284 182.801C361.284 172.41 352.868 163.986 342.486 163.986C332.104 163.986 323.688 172.41 323.688 182.801C323.688 193.193 332.104 201.617 342.486 201.617Z" fill="#FFB6B6"/>
<path d="M83.2918 323.953V323.953L83.0004 324.479C85.5939 318.081 83.2356 310.198 78.609 305.374C73.9825 300.55 67.5508 298.344 61.2175 297.469C56.5161 296.82 51.6361 296.839 47.1657 298.562C40.6921 301.058 35.7461 306.837 31.6166 312.848C29.7277 315.598 27.8705 318.732 28.0587 322.169C28.2333 325.358 30.1246 328.064 31.6733 330.77C33.2223 333.475 34.5156 336.832 33.4041 339.785C32.7417 341.545 31.3417 342.812 30.2058 344.252C29.0699 345.691 28.1354 347.637 28.6842 349.443C28.9278 350.134 29.3463 350.75 29.8989 351.231C30.4515 351.712 31.1192 352.041 31.8368 352.186C33.21 352.506 34.6346 352.297 36.0254 352.086L72.1245 346.627C74.5775 346.256 76.9045 345.297 78.907 343.832C80.9096 342.366 82.5283 340.437 83.6253 338.21C84.7222 335.983 85.2648 333.523 85.2067 331.041C85.1486 328.558 84.4916 326.127 83.2918 323.953Z" fill="#2F2E41"/>
<path d="M73.8623 331.539C75.4237 321.909 68.8895 312.834 59.2678 311.272C49.6461 309.709 40.5804 316.249 39.019 325.88C37.4576 335.51 43.9918 344.585 53.6135 346.147C63.2353 347.71 72.3009 341.17 73.8623 331.539Z" fill="#FFB9B9"/>
<path d="M103.426 376.974C93.2237 388.594 78.8656 395.731 63.4511 396.846C48.0367 397.962 32.8025 392.965 21.037 382.934L26.088 368.827C27.2295 366.321 29.0308 364.174 31.2988 362.615C33.5668 361.056 36.2159 360.145 38.9621 359.978L42.1754 359.781L49.8376 353.166C49.8376 353.166 70.4828 352.429 70.1766 352.075L82.682 359.604L82.6717 359.552L87.5877 359.854C90.3341 360.019 92.9835 360.931 95.2516 362.49C97.5198 364.049 99.3209 366.196 100.462 368.702L103.426 376.974Z" fill="#EEDD82"/>
<path d="M245.664 376.974C235.461 388.594 221.103 395.731 205.689 396.846C190.274 397.962 175.04 392.965 163.275 382.934L168.326 368.827C169.467 366.321 171.269 364.174 173.537 362.615C175.804 361.056 178.454 360.145 181.2 359.978L184.413 359.781L192.075 353.166C192.075 353.166 212.721 352.429 212.414 352.075L224.92 359.604L224.909 359.552L229.825 359.854C232.572 360.019 235.221 360.931 237.489 362.49C239.757 364.049 241.559 366.196 242.699 368.702L245.664 376.974Z" fill="#EEDD82"/>
<path d="M73.1817 312.313C72.7261 309.901 70.2679 308.797 68.1617 308.263C62.0526 306.703 55.6977 306.353 49.4547 307.234C44.9037 307.884 40.2446 309.317 36.9424 312.872C34.2797 315.866 32.771 319.712 32.6874 323.72C32.5527 326.116 33.0876 328.502 34.2321 330.611C35.4205 332.624 37.4459 334.085 39.5368 334.033L39.7486 334.77C48.6098 333.535 56.8412 328.016 62.0254 319.835C61.0524 323.313 59.1161 326.443 56.4404 328.866C62.4229 326.47 67.6233 322.458 71.4621 317.278C72.5104 315.885 73.5282 314.149 73.1817 312.313Z" fill="#2F2E41"/>
<path d="M102.907 233.045C92.7046 244.665 78.3465 251.802 62.932 252.918C47.5176 254.033 32.2834 249.036 20.5179 239.005L25.5689 224.898C26.7104 222.392 28.5117 220.245 30.7797 218.686C33.0477 217.127 35.6968 216.216 38.443 216.049L41.6563 215.852L49.3185 209.237C49.3185 209.237 69.9637 208.5 69.6575 208.146L82.163 215.675L82.1526 215.623L87.0686 215.925C89.815 216.09 92.4644 217.002 94.7326 218.561C97.0007 220.12 98.8018 222.267 99.9427 224.773L102.907 233.045Z" fill="#EEDD82"/>
<path d="M242.938 233.752C232.736 245.372 218.378 252.509 202.964 253.624C187.549 254.739 172.315 249.742 160.55 239.712L165.601 225.605C166.742 223.099 168.543 220.952 170.811 219.393C173.079 217.834 175.728 216.923 178.475 216.756L181.688 216.559L189.35 209.944C189.35 209.944 209.995 209.206 209.689 208.853L222.195 216.382L222.184 216.33L227.1 216.631C229.847 216.797 232.496 217.708 234.764 219.267C237.032 220.826 238.833 222.974 239.974 225.48L242.938 233.752Z" fill="#EEDD82"/>
<path d="M388.291 233.752C378.089 245.372 363.731 252.509 348.316 253.624C332.902 254.739 317.667 249.742 305.902 239.712L310.953 225.605C312.094 223.099 313.896 220.952 316.164 219.393C318.432 217.834 321.081 216.923 323.827 216.756L327.04 216.559L334.703 209.944C334.703 209.944 355.348 209.206 355.041 208.853L367.547 216.382L367.537 216.33L372.453 216.631C375.199 216.797 377.848 217.708 380.117 219.267C382.385 220.826 384.186 222.974 385.327 225.48L388.291 233.752Z" fill="#EEDD82"/>
<path d="M102.907 97.9495C92.7046 109.569 78.3465 116.707 62.932 117.822C47.5176 118.937 32.2834 113.94 20.5179 103.909L25.5689 89.8022C26.7104 87.2966 28.5117 85.1492 30.7797 83.5903C33.0477 82.0315 35.6968 81.1199 38.443 80.9534L41.6563 80.7559L49.3185 74.1415C49.3185 74.1415 69.9637 73.4036 69.6575 73.0503L82.163 80.5793L82.1526 80.5273L87.0686 80.8287C89.815 80.9945 92.4644 81.9058 94.7326 83.4647C97.0007 85.0237 98.8018 87.1714 99.9427 89.6775L102.907 97.9495Z" fill="#EEDD82"/>
<path d="M242.419 98.137C232.217 109.756 217.859 116.894 202.445 118.009C187.03 119.124 171.796 114.127 160.03 104.097L165.081 89.9897C166.223 87.484 168.024 85.3367 170.292 83.7778C172.56 82.2189 175.209 81.3074 177.955 81.1409L181.169 80.9434L188.831 74.3289C188.831 74.3289 209.476 73.5911 209.17 73.2378L221.675 80.7668L221.665 80.7148L226.581 81.0162C229.327 81.182 231.977 82.0933 234.245 83.6522C236.513 85.2112 238.314 87.3589 239.455 89.865L242.419 98.137Z" fill="#EEDD82"/>
<path d="M387.772 98.137C377.569 109.756 363.211 116.894 347.797 118.009C332.383 119.124 317.148 114.127 305.383 104.097L310.434 89.9897C311.575 87.484 313.377 85.3367 315.645 83.7778C317.913 82.2189 320.562 81.3074 323.308 81.1409L326.521 80.9434L334.183 74.3289C334.183 74.3289 354.829 73.5911 354.522 73.2378L367.028 80.7668L367.017 80.7148L371.933 81.0162C374.68 81.182 377.329 82.0933 379.597 83.6522C381.866 85.2112 383.667 87.3589 384.808 89.865L387.772 98.137Z" fill="#EEDD82"/>
<path d="M362.312 171.132C360.723 165.442 357.114 160.527 352.162 157.31C348.215 154.784 343.291 153.494 338.82 154.83C334.349 156.166 330.647 160.558 330.94 165.303C329.326 164.754 327.491 165.485 326.31 166.734C325.129 167.984 324.493 169.665 324.038 171.338C322.604 176.658 322.699 182.275 324.313 187.544L324.224 188.3C326.405 187.939 328.06 186.066 329.088 184.07C330.117 182.074 330.709 179.86 331.824 177.913C332.94 175.966 334.791 174.229 337 174.168L336.806 177.548C338.706 176.568 340.607 175.588 342.507 174.607C342.055 175.69 341.603 176.772 341.151 177.855C342.811 177.16 344.471 176.466 346.13 175.772C345.945 176.812 345.759 177.853 345.574 178.894C347.22 175.144 352.31 173.496 355.773 175.593C357.784 176.811 359.104 178.981 359.798 181.26C360.492 183.539 360.629 185.95 360.761 188.332C363.326 182.972 363.876 176.866 362.312 171.132Z" fill="#2F2E41"/>
<path d="M184.713 334.556C184.678 334.458 184.646 334.359 184.611 334.261C184.543 334.322 184.477 334.384 184.402 334.441L184.713 334.556Z" fill="#2F2E41"/>
<path d="M222.347 319.927C222.255 318.113 221.78 316.338 220.954 314.721C220.127 313.104 218.967 311.68 217.551 310.544C216.509 309.72 215.305 309.024 214.616 307.888C214.223 307.084 213.889 306.253 213.619 305.4C212.247 302.132 208.339 300.396 204.833 300.89C201.326 301.385 198.292 303.746 196.248 306.64C195.241 306.157 194.117 305.973 193.009 306.11C191.901 306.246 190.855 306.698 189.995 307.411C189.136 308.124 188.498 309.069 188.158 310.134C187.818 311.199 187.79 312.338 188.078 313.418C186.262 311.954 183.325 313.126 182.192 315.165C181.058 317.204 181.238 319.7 181.575 322.009C182.186 326.182 183.203 330.286 184.611 334.261C186.379 332.703 186.271 329.865 186.055 327.467C185.83 324.974 185.965 321.932 188.142 320.702C190.245 319.514 192.798 320.818 195.118 321.493C196.951 322.013 198.876 322.128 200.759 321.832C202.641 321.536 204.438 320.834 206.023 319.776C207.231 318.958 208.307 317.933 209.609 317.275C210.912 316.618 212.569 316.389 213.782 317.201C214.889 317.942 215.34 319.325 215.716 320.604C216.609 323.635 217.502 326.666 218.395 329.697C219.706 328.441 220.736 326.92 221.417 325.236C222.098 323.552 222.415 321.743 222.347 319.927Z" fill="#2F2E41"/>
<path d="M81.5566 171.498C81.7038 169.93 81.7712 168.356 81.7587 166.782C81.8444 163.668 81.2744 160.57 80.0856 157.691C78.6237 154.504 76.017 151.983 72.7836 150.631C69.5788 149.337 65.997 149.34 62.7945 150.639C59.903 148.811 56.6903 147.361 53.3069 147.182C49.9235 147.002 46.3463 148.258 44.2613 151.024C43.7957 151.754 43.2669 152.442 42.6809 153.079C41.0049 154.633 38.4579 154.409 36.2302 154.091C37.2293 154.948 38.2288 155.805 39.2285 156.662C38.019 156.979 36.8094 157.295 35.5997 157.611C37.0112 158.468 38.4226 159.325 39.8339 160.182C35.7364 162.643 33.874 168.017 34.3659 172.896C34.8314 177.516 37.0598 181.741 39.7237 185.496C40.7864 183.252 40.5574 180.566 40.5399 178.038C40.5302 177.218 40.5801 176.398 40.6894 175.585C49.6923 177.746 59.0991 179.132 68.6388 175.701L70.5532 171.011C70.8219 171.039 71.0907 171.065 71.3592 171.093L72.4683 175.705C74.9829 176.734 77.5028 177.633 80.0236 176.689C80.1463 177.401 80.2201 178.128 80.2769 178.827C80.4932 177.991 80.6809 177.149 80.8502 176.303C81.1833 176.125 81.5024 175.921 81.8046 175.693C81.8655 174.29 81.7824 172.884 81.5566 171.498Z" fill="#2F2E41"/>
</g>
<defs>
<clipPath id="clip0_22:72">
<rect width="403" height="397" fill="white"/>
</clipPath>
</defs>
</svg>
